<svg width="114" height="89" viewBox="0 0 114 89" fill="none" xmlns="http://www.w3.org/2000/svg">
<path fill-rule="evenodd" clip-rule="evenodd" d="M92.2772 8.25636L52.8102 8.25598H31.3311C28.6953 8.25598 26.5595 10.3914 26.5595 13.028L26.5599 41.9837C30.8927 40.3359 35.4932 39.4908 40.1318 39.4908H56.6374H73.1429C78.0004 39.4908 82.8113 40.4171 87.3207 42.2218L92.2772 44.2068V8.25636ZM92.2677 47.4746C87.9042 45.7995 83.2702 44.9412 78.5934 44.9412H62.0878H45.5819C40.7248 44.9412 35.91 45.8672 31.3999 47.6719L26.5599 49.6569L22.5543 51.2209C23.1693 51.9813 23.952 52.6004 24.8466 53.0218C22.6371 51.9821 21.1098 49.7363 21.1098 47.1307L21.1094 41.986C21.1094 40.6367 20.843 39.3275 20.3509 38.1252C20.1385 38.0405 19.9211 37.9627 19.7004 37.8928C12.5665 35.6379 7.26727 40.8899 7.26727 47.5136C7.26727 55.1059 14.5557 56.7008 14.5557 65.7766V77.1477H56.2647L101.026 77.1481C102.823 77.1481 104.281 75.6903 104.281 73.8943V60.3265C104.281 51.2508 111.569 49.6558 111.569 42.0635C111.569 40.5634 111.296 39.1347 110.793 37.8467C108.992 37.2204 106.885 37.1667 104.586 37.8928C100.466 39.1963 97.7272 43.1104 97.7272 47.4361L97.7269 52.5808C97.7269 56.1736 94.8121 59.0891 91.2189 59.0891H61.7148H33.0678C29.8054 59.0891 27.1075 56.694 26.6336 53.565L26.6188 53.5623C26.9442 53.6126 27.278 53.6387 27.6174 53.6387H56.2647H85.7684C89.2464 53.6387 92.0886 50.9076 92.2677 47.4746ZM24.9286 53.0593C25.0375 53.1088 25.1482 53.1556 25.2605 53.1991C25.1482 53.1553 25.0375 53.1088 24.9286 53.0593Z" fill="#B02F07"/>
<path d="M94.094 47.1307H94.0936L94.0932 47.1775C94.0804 49.4566 93.1506 51.5202 91.6543 53.0165L91.6509 53.0128C90.1402 54.5215 88.0603 55.4555 85.7684 55.4555H56.2647H27.6174C25.3228 55.4555 23.2437 54.5242 21.7372 53.018L21.7304 53.0112C20.2243 51.5047 19.293 49.4256 19.293 47.1307H19.3002V44.2839L19.2998 44.279V44.2745C19.2983 44.2337 19.2983 44.1917 19.2998 44.1505V44.1456L19.3002 44.1415V44.1365L19.2998 41.986H19.2926C19.2926 40.1903 18.7257 38.488 17.7347 37.1089C16.7603 35.7532 15.371 34.7021 13.7038 34.1745C12.7408 33.8698 11.8243 33.7281 10.9663 33.7281C9.29122 33.7281 7.82589 34.2739 6.66482 35.1972C5.47654 36.1421 4.58306 37.4921 4.08378 39.0731C3.79049 40.001 3.63402 41.0097 3.63402 42.0635C3.63402 45.1007 5.12391 47.1235 6.67956 49.2363C8.75226 52.0501 10.9225 54.9966 10.9225 60.3265V73.8943C10.9225 74.2907 11.0835 74.6506 11.3435 74.9102L11.3401 74.9136C11.5994 75.1714 11.9603 75.3312 12.3598 75.3312H20.6808H56.2647V75.3384L92.541 75.3388C92.595 75.3339 92.6498 75.3312 92.705 75.3312C92.7606 75.3312 92.8154 75.3339 92.8694 75.3388H101.026V75.3316C101.423 75.3316 101.783 75.1702 102.043 74.9102C102.302 74.6506 102.464 74.2907 102.464 73.8943V60.3265C102.464 54.9966 104.634 52.0505 106.707 49.2363C108.262 47.1239 109.752 45.1011 109.752 42.0635C109.752 41.0097 109.596 40.0014 109.302 39.0735C108.803 37.4925 107.91 36.1425 106.721 35.1972C105.56 34.2742 104.095 33.7285 102.42 33.7285C101.562 33.7285 100.645 33.8702 99.6824 34.1745C98.0152 34.7021 96.6255 35.7535 95.6519 37.1085C94.6605 38.488 94.094 40.1903 94.094 41.986V47.1307ZM22.4976 78.9645V86.5799C22.4976 87.583 21.6843 88.3967 20.6808 88.3967C19.6777 88.3967 18.8644 87.583 18.8644 86.5799V78.9645H12.3598C10.9648 78.9645 9.69903 78.3964 8.78136 77.4792L8.77833 77.4758L8.77455 77.4792C7.85726 76.5619 7.28882 75.2938 7.28882 73.8943V60.3265C7.28882 56.1755 5.48183 53.7222 3.7561 51.3792C1.83761 48.774 0.00038147 46.2795 0.00038147 42.0635C0.00038147 40.6367 0.215815 39.2594 0.620224 37.9801C1.33493 35.718 2.64605 33.7598 4.40844 32.3588C6.19805 30.9358 8.43326 30.0948 10.9663 30.0948C12.1833 30.0948 13.4668 30.2906 14.7965 30.7109C16.526 31.2582 18.0514 32.1951 19.3002 33.4046L19.2998 7.57792H19.2926C19.2926 5.77169 20.0258 4.13024 21.2126 2.93591L21.2224 2.9257L21.2258 2.92268L21.2292 2.9189C22.4247 1.72684 24.0695 0.989075 25.8811 0.989075H47.3601V0.996256L87.5051 0.996634V0.989453C89.3242 0.989453 90.9725 1.72722 92.1642 2.9189L92.1604 2.92268C93.3547 4.11815 94.094 5.76413 94.094 7.57755V33.3966C95.3412 32.191 96.8636 31.2567 98.5894 30.7109C99.9201 30.2906 101.203 30.0952 102.42 30.0952C104.953 30.0952 107.188 30.9358 108.978 32.3588C110.74 33.7606 112.051 35.7188 112.766 37.9804C113.17 39.2598 113.385 40.6367 113.385 42.0635C113.385 46.2799 111.548 48.7748 109.63 51.3792C107.904 53.7226 106.097 56.1758 106.097 60.3265V73.8943C106.097 75.2938 105.529 76.5619 104.612 77.4792C103.694 78.3968 102.426 78.9649 101.026 78.9649V78.9577H94.5218V86.5799C94.5218 87.583 93.7085 88.3967 92.705 88.3967C91.7019 88.3967 90.8886 87.583 90.8886 86.5799V78.9577L56.2647 78.9573V78.9645H22.4976ZM90.4603 47.1307V45.4306L86.6468 43.9037C84.5049 43.0465 82.286 42.3964 80.0228 41.961C77.7713 41.5275 75.4677 41.3076 73.1429 41.3076H56.6374H40.1318C37.807 41.3076 35.5022 41.5275 33.2496 41.961C30.9849 42.3968 28.7652 43.0469 26.6238 43.9037L26.5776 43.9211L22.9191 45.4216V47.1307H22.9266C22.9266 48.4301 23.4497 49.6044 24.2959 50.4525C25.1441 51.2987 26.318 51.8222 27.6174 51.8222H56.2647H85.7684C87.0682 51.8222 88.2414 51.2987 89.0854 50.4544L89.0891 50.451L89.0854 50.4476C89.9342 49.5987 90.46 48.4255 90.46 47.1307H90.4603ZM19.3002 44.5583V44.2839V44.5583ZM90.4603 41.5275V7.57755C90.4603 6.75663 90.1323 6.01774 89.6024 5.48785L89.599 5.48407L89.5952 5.48785C89.0612 4.95342 88.3219 4.62309 87.5051 4.62309V4.61553L47.3601 4.61515V4.62271H25.8811C25.0602 4.62271 24.3213 4.95078 23.7914 5.48067L23.7842 5.48785C23.2543 6.01774 22.9262 6.75701 22.9262 7.57792H22.9187L22.9191 41.5079L25.1966 40.5736L25.276 40.5399C27.6423 39.5932 30.085 38.8766 32.5682 38.3988C35.0653 37.9185 37.5987 37.6743 40.1318 37.6743H56.6374H73.1429C75.6752 37.6743 78.2079 37.9177 80.7043 38.3988C83.1863 38.8766 85.6282 39.5932 87.995 40.5399L90.4603 41.5275Z" fill="black"/>
</svg>
