<svg width="1000" height="371" viewBox="0 0 1000 371" fill="none" xmlns="http://www.w3.org/2000/svg">
<path d="M288.536 282.514C288.536 293.272 287.171 302.987 284.441 311.657C281.712 320.167 278.099 327.714 273.603 334.297C269.107 340.719 263.889 346.259 257.948 350.915C252.007 355.411 245.745 359.104 239.162 361.994C232.739 364.884 226.156 367.052 219.412 368.497C212.829 369.782 206.567 370.424 200.626 370.424H87.6686C76.9107 370.424 67.2768 369.059 58.7669 366.329C50.2569 363.6 42.7103 359.987 36.1272 355.491C29.7046 350.835 24.1651 345.536 19.5087 339.595C15.0128 333.654 11.3198 327.473 8.42967 321.05C5.5395 314.467 3.37187 307.884 1.92678 301.301C0.642261 294.557 0 288.295 0 282.514V197.736C0 181.68 2.89017 168.112 8.67052 157.033C14.6114 145.793 21.9171 136.721 30.5877 129.817C39.4188 122.752 48.9724 117.694 59.2486 114.644C69.5247 111.593 78.9981 110.067 87.6686 110.067H190.626C196.149 110.067 200.626 114.545 200.626 120.067V162.688C200.626 168.211 196.149 172.688 190.626 172.688H88.1503C79.8009 172.688 73.4586 174.855 69.1233 179.191C64.7881 183.365 62.6204 189.547 62.6204 197.736V282.033C62.6204 290.543 64.7078 296.965 68.8825 301.301C73.2177 305.636 79.4798 307.803 87.6686 307.803H200.626C209.136 307.803 215.478 305.636 219.653 301.301C223.828 296.965 225.915 290.703 225.915 282.514V9.99999C225.915 4.47715 230.392 0 235.915 0H278.536C284.059 0 288.536 4.47715 288.536 10V282.514Z" fill="#B02F07"/>
<path d="M462.669 360.424C462.669 365.947 458.191 370.424 452.669 370.424H434.73C425.739 370.424 416.105 368.899 405.829 365.848C395.713 362.797 386.24 357.82 377.408 350.915C368.577 343.85 361.272 334.778 355.491 323.699C349.711 312.46 346.821 298.732 346.821 282.514V9.99999C346.821 4.47715 351.298 0 356.821 0H399.441C404.964 0 409.441 4.47715 409.441 10V282.514C409.441 290.222 411.85 296.403 416.667 301.06C421.484 305.556 427.505 307.803 434.73 307.803H452.669C458.191 307.803 462.669 312.281 462.669 317.803V360.424Z" fill="#B02F07"/>
<path d="M566.474 46.5992C566.474 52.1221 561.997 56.5992 556.474 56.5992H513.854C508.331 56.5992 503.854 52.1221 503.854 46.5992V10C503.854 4.47715 508.331 0 513.854 0H556.474C561.997 0 566.474 4.47715 566.474 10V46.5992ZM566.474 360.424C566.474 365.947 561.997 370.424 556.474 370.424H513.854C508.331 370.424 503.854 365.947 503.854 360.424V120.067C503.854 114.545 508.331 110.067 513.854 110.067H556.474C561.997 110.067 566.474 114.545 566.474 120.067V360.424Z" fill="#B02F07"/>
<path d="M859.104 360.424C859.104 365.947 854.627 370.424 849.104 370.424H806.484C800.961 370.424 796.484 365.947 796.484 360.424V197.736C796.484 189.547 794.316 183.365 789.981 179.191C785.645 174.855 779.223 172.688 770.713 172.688H699.306C693.784 172.688 689.306 177.165 689.306 182.688V360.424C689.306 365.947 684.829 370.424 679.306 370.424H636.686C631.163 370.424 626.686 365.947 626.686 360.424V141.137C626.686 136.802 627.489 132.787 629.094 129.094C630.7 125.241 632.948 121.949 635.838 119.22C638.728 116.329 642.1 114.082 645.954 112.476C649.807 110.87 653.902 110.067 658.237 110.067H771.195C779.865 110.067 789.178 111.593 799.133 114.644V114.644C804.677 116.342 802.614 120.809 797.127 118.933L771.195 110.067H912.331C918.272 110.067 924.534 110.79 931.118 112.235C937.701 113.52 944.204 115.607 950.626 118.497C957.209 121.387 963.471 125.161 969.412 129.817C975.353 134.313 980.572 139.852 985.067 146.435C989.563 152.858 993.176 160.324 995.906 168.834C998.635 177.344 1000 186.978 1000 197.736V360.424C1000 365.947 995.523 370.424 990 370.424H947.38C941.857 370.424 937.38 365.947 937.38 360.424V197.736C937.38 189.547 935.292 183.365 931.118 179.191C927.103 174.855 920.841 172.688 912.331 172.688H869.042C862.455 172.688 857.653 178.972 858.416 185.514C858.875 189.447 859.104 193.521 859.104 197.736V360.424Z" fill="#B02F07"/>
</svg>
